<?xml version="1.0" encoding="UTF-8" standalone="no"?>
<!-- Generator: Adobe Fireworks CS6, Export SVG Extension by Aaron Beall (http://fireworks.abeall.com) . Version: 0.6.1  -->

<svg
   xmlns:dc="http://purl.org/dc/elements/1.1/"
   xmlns:cc="http://creativecommons.org/ns#"
   xmlns:rdf="http://www.w3.org/1999/02/22-rdf-syntax-ns#"
   xmlns:svg="http://www.w3.org/2000/svg"
   xmlns="http://www.w3.org/2000/svg"
   xmlns:sodipodi="http://sodipodi.sourceforge.net/DTD/sodipodi-0.dtd"
   xmlns:inkscape="http://www.inkscape.org/namespaces/inkscape"
   id="controls.fw-Page%201"
   viewBox="0 0 144 32"
   style="background-color:#ffffff00"
   version="1.1"
   xml:space="preserve"
   x="0px"
   y="0px"
   width="144px"
   height="32px"
   inkscape:version="0.47 r22583"
   sodipodi:docname="controls.svg"><metadata
   id="metadata202"><rdf:RDF><cc:Work
       rdf:about=""><dc:format>image/svg+xml</dc:format><dc:type
         rdf:resource="http://purl.org/dc/dcmitype/StillImage" /></cc:Work></rdf:RDF></metadata><sodipodi:namedview
   pagecolor="#ffffff"
   bordercolor="#666666"
   borderopacity="1"
   objecttolerance="10"
   gridtolerance="10"
   guidetolerance="10"
   inkscape:pageopacity="0"
   inkscape:pageshadow="2"
   inkscape:window-width="974"
   inkscape:window-height="629"
   id="namedview200"
   showgrid="false"
   inkscape:zoom="5.7153579"
   inkscape:cx="72"
   inkscape:cy="15.465677"
   inkscape:window-x="0"
   inkscape:window-y="0"
   inkscape:window-maximized="0"
   inkscape:current-layer="controls.fw-Page%201" />
	<defs
   id="defs3"><inkscape:perspective
   sodipodi:type="inkscape:persp3d"
   inkscape:vp_x="0 : 16 : 1"
   inkscape:vp_y="0 : 1000 : 0"
   inkscape:vp_z="144 : 16 : 1"
   inkscape:persp3d-origin="72 : 10.666667 : 1"
   id="perspective204" />
		<radialGradient
   id="gradient1"
   cx="50%"
   cy="50%"
   r="50%">
			<stop
   stop-color="#ffffff"
   stop-opacity="1"
   offset="0%"
   id="stop6" />
			<stop
   stop-color="#f2f2f2"
   stop-opacity="0.2"
   offset="100%"
   id="stop8" />
		</radialGradient>
		<linearGradient
   id="gradient2"
   x1="50%"
   y1="-7.8652%"
   x2="50%"
   y2="249.6629%">
			<stop
   stop-color="#ffffff"
   stop-opacity="1"
   offset="0%"
   id="stop11" />
			<stop
   stop-color="#c8c8c8"
   stop-opacity="1"
   offset="100%"
   id="stop13" />
		</linearGradient>
		<linearGradient
   id="gradient3"
   x1="50%"
   y1="0%"
   x2="50%"
   y2="238.75%">
			<stop
   stop-color="#ffffff"
   stop-opacity="1"
   offset="0%"
   id="stop16" />
			<stop
   stop-color="#c8c8c8"
   stop-opacity="1"
   offset="100%"
   id="stop18" />
		</linearGradient>
		<linearGradient
   id="gradient4"
   x1="50%"
   y1="0%"
   x2="50%"
   y2="100%">
			<stop
   stop-color="#ffffff"
   stop-opacity="1"
   offset="0%"
   id="stop21" />
			<stop
   stop-color="#c8c8c8"
   stop-opacity="1"
   offset="100%"
   id="stop23" />
		</linearGradient>
		<linearGradient
   id="gradient5"
   x1="50%"
   y1="-33.3333%"
   x2="50%"
   y2="152.0833%">
			<stop
   stop-color="#ffffff"
   stop-opacity="1"
   offset="0%"
   id="stop26" />
			<stop
   stop-color="#c8c8c8"
   stop-opacity="1"
   offset="100%"
   id="stop28" />
		</linearGradient>
		<linearGradient
   id="gradient6"
   x1="50%"
   y1="0%"
   x2="50%"
   y2="100%">
			<stop
   stop-color="#ffffff"
   stop-opacity="1"
   offset="0%"
   id="stop31" />
			<stop
   stop-color="#c8c8c8"
   stop-opacity="1"
   offset="100%"
   id="stop33" />
		</linearGradient>
		<linearGradient
   id="gradient7"
   x1="50%"
   y1="-33.3333%"
   x2="50%"
   y2="152.0833%">
			<stop
   stop-color="#ffffff"
   stop-opacity="1"
   offset="0%"
   id="stop36" />
			<stop
   stop-color="#c8c8c8"
   stop-opacity="1"
   offset="100%"
   id="stop38" />
		</linearGradient>
		<linearGradient
   id="gradient8"
   x1="50%"
   y1="0%"
   x2="50%"
   y2="100%">
			<stop
   stop-color="#ffffff"
   stop-opacity="1"
   offset="0%"
   id="stop41" />
			<stop
   stop-color="#c8c8c8"
   stop-opacity="1"
   offset="100%"
   id="stop43" />
		</linearGradient>
		<linearGradient
   id="gradient9"
   x1="50%"
   y1="0%"
   x2="50%"
   y2="100%">
			<stop
   stop-color="#ffffff"
   stop-opacity="1"
   offset="0%"
   id="stop46" />
			<stop
   stop-color="#c8c8c8"
   stop-opacity="1"
   offset="100%"
   id="stop48" />
		</linearGradient>
		<linearGradient
   id="gradient10"
   x1="50%"
   y1="0%"
   x2="50%"
   y2="100%">
			<stop
   stop-color="#ffffff"
   stop-opacity="1"
   offset="0%"
   id="stop51" />
			<stop
   stop-color="#c8c8c8"
   stop-opacity="1"
   offset="100%"
   id="stop53" />
		</linearGradient>
		<linearGradient
   id="gradient11"
   x1="50%"
   y1="0%"
   x2="50%"
   y2="100%">
			<stop
   stop-color="#ffffff"
   stop-opacity="1"
   offset="0%"
   id="stop56" />
			<stop
   stop-color="#c8c8c8"
   stop-opacity="1"
   offset="100%"
   id="stop58" />
		</linearGradient>
		<linearGradient
   id="gradient12"
   x1="50%"
   y1="0%"
   x2="50%"
   y2="238.75%">
			<stop
   stop-color="#ffffff"
   stop-opacity="1"
   offset="0%"
   id="stop61" />
			<stop
   stop-color="#c8c8c8"
   stop-opacity="1"
   offset="100%"
   id="stop63" />
		</linearGradient>
		<linearGradient
   id="gradient13"
   x1="40%"
   y1="-140%"
   x2="40%"
   y2="98.75%">
			<stop
   stop-color="#ffffff"
   stop-opacity="1"
   offset="0%"
   id="stop66" />
			<stop
   stop-color="#c8c8c8"
   stop-opacity="1"
   offset="100%"
   id="stop68" />
		</linearGradient>
		<linearGradient
   id="gradient14"
   x1="50%"
   y1="0%"
   x2="50%"
   y2="238.75%">
			<stop
   stop-color="#ffffff"
   stop-opacity="1"
   offset="0%"
   id="stop71" />
			<stop
   stop-color="#c8c8c8"
   stop-opacity="1"
   offset="100%"
   id="stop73" />
		</linearGradient>
		<linearGradient
   id="gradient15"
   x1="60%"
   y1="-140%"
   x2="60%"
   y2="98.75%">
			<stop
   stop-color="#ffffff"
   stop-opacity="1"
   offset="0%"
   id="stop76" />
			<stop
   stop-color="#c8c8c8"
   stop-opacity="1"
   offset="100%"
   id="stop78" />
		</linearGradient>
		<linearGradient
   id="gradient16"
   x1="50%"
   y1="0%"
   x2="50%"
   y2="298.4375%">
			<stop
   stop-color="#ffffff"
   stop-opacity="1"
   offset="0%"
   id="stop81" />
			<stop
   stop-color="#c8c8c8"
   stop-opacity="1"
   offset="100%"
   id="stop83" />
		</linearGradient>
		<linearGradient
   id="gradient17"
   x1="50%"
   y1="0%"
   x2="50%"
   y2="238.75%">
			<stop
   stop-color="#ffffff"
   stop-opacity="1"
   offset="0%"
   id="stop86" />
			<stop
   stop-color="#c8c8c8"
   stop-opacity="1"
   offset="100%"
   id="stop88" />
		</linearGradient>
		<linearGradient
   id="gradient18"
   x1="50%"
   y1="-200%"
   x2="50%"
   y2="100%">
			<stop
   stop-color="#ffffff"
   stop-opacity="1"
   offset="0%"
   id="stop91" />
			<stop
   stop-color="#c8c8c8"
   stop-opacity="1"
   offset="100%"
   id="stop93" />
		</linearGradient>
		<linearGradient
   id="gradient19"
   x1="50%"
   y1="-200%"
   x2="50%"
   y2="110.9375%">
			<stop
   stop-color="#ffffff"
   stop-opacity="1"
   offset="0%"
   id="stop96" />
			<stop
   stop-color="#c8c8c8"
   stop-opacity="1"
   offset="100%"
   id="stop98" />
		</linearGradient>
		<linearGradient
   id="gradient20"
   x1="55%"
   y1="0%"
   x2="55%"
   y2="100%">
			<stop
   stop-color="#ffffff"
   stop-opacity="1"
   offset="0%"
   id="stop101" />
			<stop
   stop-color="#c8c8c8"
   stop-opacity="1"
   offset="100%"
   id="stop103" />
		</linearGradient>
		<linearGradient
   id="gradient21"
   x1="50%"
   y1="0%"
   x2="50%"
   y2="100%">
			<stop
   stop-color="#ffffff"
   stop-opacity="1"
   offset="0%"
   id="stop106" />
			<stop
   stop-color="#c8c8c8"
   stop-opacity="1"
   offset="99.4444%"
   id="stop108" />
		</linearGradient>
	</defs>
	<g
   id="BG">
	</g>
	<g
   id="controls"
   style="fill:#000000">
		<path
   id="Line"
   d="M 98.5 7.5 L 109.5 7.5 "
   stroke="#ffffff"
   stroke-width="1"
   fill="none"
   style="fill:#000000" />
		<path
   id="Line2"
   d="M 98.5 3.5 L 109.5 3.5 "
   stroke="#ffffff"
   stroke-width="1"
   fill="none"
   style="fill:#000000" />
		<path
   id="Line3"
   d="M 98.5 11.5 L 109.5 11.5 "
   stroke="#ffffff"
   stroke-width="1"
   fill="none"
   style="fill:#000000" />
		<path
   id="Ellipse"
   d="M 108 11.5 C 108 10.6716 108.4477 10 109 10 C 109.5523 10 110 10.6716 110 11.5 C 110 12.3284 109.5523 13 109 13 C 108.4477 13 108 12.3284 108 11.5 Z"
   fill="#ffffff"
   style="fill:#000000" />
		<path
   id="Ellipse2"
   d="M 104 7.5 C 104 6.6716 104.4477 6 105 6 C 105.5523 6 106 6.6716 106 7.5 C 106 8.3284 105.5523 9 105 9 C 104.4477 9 104 8.3284 104 7.5 Z"
   fill="#ffffff"
   style="fill:#000000" />
		<path
   id="Ellipse3"
   d="M 108 3.5 C 108 2.6716 108.4477 2 109 2 C 109.5523 2 110 2.6716 110 3.5 C 110 4.3284 109.5523 5 109 5 C 108.4477 5 108 4.3284 108 3.5 Z"
   fill="#ffffff"
   style="fill:#000000" />
	</g>
	<g
   id="backlight"
   style="fill:#000000">
		<g
   id="off"
   style="fill:#000000">
			<rect
   x="83"
   y="21"
   width="10"
   height="6"
   stroke="#ffffff"
   stroke-width="1"
   fill="#333333"
   id="rect120"
   style="fill:#000000" />
		</g>
		<g
   id="on"
   style="fill:#000000">
			<path
   id="Ellipse4"
   d="M 81 8 C 81 5.2385 84.134 3 88 3 C 91.866 3 95 5.2385 95 8 C 95 10.7615 91.866 13 88 13 C 84.134 13 81 10.7615 81 8 Z"
   fill="url(#gradient1)"
   style="fill:#000000" />
			<rect
   x="83"
   y="5"
   width="10"
   height="6"
   stroke="#ffffff"
   stroke-width="1"
   fill="#333333"
   id="rect124"
   style="fill:#000000" />
		</g>
	</g>
	<g
   id="loop"
   style="fill:#000000">
		<g
   id="on2"
   style="fill:#000000">
			<path
   d="M 73.795 4.205 C 75.2155 4.8785 76.2 6.3234 76.2 8 C 76.2 10.3196 74.3196 12.2 72 12.2 C 69.6804 12.2 67.8 10.3196 67.8 8 C 67.8 6.3234 68.7845 4.8785 70.205 4.205 L 68.875 2.875 C 67.1501 3.9289 66 5.8306 66 8 C 66 11.3138 68.6862 14 72 14 C 75.3138 14 78 11.3138 78 8 C 78 5.8306 76.8499 3.9289 75.125 2.875 L 73.795 4.205 Z"
   fill="url(#gradient2)"
   id="path128"
   style="fill:#000000" />
			<path
   d="M 71 2 L 66 2 L 71 7 L 71 2 Z"
   fill="url(#gradient3)"
   id="path130"
   style="fill:#000000" />
		</g>
		<g
   id="off2"
   style="fill:#000000">
			<path
   d="M 73.795 20.205 C 75.2155 20.8785 76.2 22.3234 76.2 24 C 76.2 26.3196 74.3196 28.2 72 28.2 C 69.6804 28.2 67.8 26.3196 67.8 24 C 67.8 22.3234 68.7845 20.8785 70.205 20.205 L 68.875 18.875 C 67.1501 19.9289 66 21.8306 66 24 C 66 27.3138 68.6862 30 72 30 C 75.3138 30 78 27.3138 78 24 C 78 21.8306 76.8499 19.9289 75.125 18.875 L 73.795 20.205 Z"
   fill="#a8a8b7"
   id="path133"
   style="fill:#ff0000" />
			<path
   d="M 71 18 L 66 18 L 71 23 L 71 18 Z"
   fill="#a8a8b7"
   id="path135"
   style="fill:#ff0000" />
		</g>
	</g>
	<g
   id="cc">
		<rect
   visibility="hidden"
   x="49"
   y="2"
   width="14"
   height="12"
   stroke="#b0b0b0"
   stroke-width="1"
   fill="none"
   id="rect138" />
		<text
   visibility="hidden"
   x="49"
   y="17"
   width="14"
   fill="#ffffff"
   style="font-size: 10px; color: #ffffff; font-family: Arial; text-align: center; "
   id="text140"><tspan
     id="tspan142">cc</tspan></text>

		<path
   d="M 55 7 C 50.2813 3.7813 50.063 12.9405 55 10 "
   stroke="#ffffff"
   stroke-width="1"
   fill="none"
   id="path144" />
		<path
   d="M 60 7 C 55.2813 3.7813 55.063 12.9405 60 10 "
   stroke="#ffffff"
   stroke-width="1"
   fill="none"
   id="path146" />
		<path
   d="M 50 3 L 62 3 L 62 13 L 50 13 L 50 3 ZM 49 2 L 49 14 L 63 14 L 63 2 L 49 2 Z"
   fill="url(#gradient4)"
   id="path148"
   style="stroke:#000000" />
		<rect
   x="49"
   y="2"
   width="14"
   height="12"
   fill="none"
   id="rect150" />
	</g>
	<g
   id="volume"
   style="fill:#000000">
		<g
   id="no%20sound"
   style="fill:#000000">
			<rect
   x="17"
   y="5"
   width="5"
   height="6"
   fill="url(#gradient5)"
   id="rect154"
   style="fill:#000000" />
			<path
   d="M 21 5 L 25 2 L 25 14 L 21 11.0625 L 21 5 Z"
   fill="url(#gradient6)"
   id="path156"
   style="fill:#000000" />
		</g>
		<g
   id="sound%20bars"
   style="fill:#000000">
			<rect
   x="17"
   y="21"
   width="5"
   height="6"
   fill="url(#gradient7)"
   id="rect159"
   style="fill:#000000" />
			<path
   d="M 21 21 L 25 18 L 25 30 L 21 27.0625 L 21 21 Z"
   fill="url(#gradient8)"
   id="path161"
   style="fill:#000000" />
			<path
   d="M 27 18 C 27 18 30.0625 17.375 30 24 C 29.9375 30.625 27 30 27 30 "
   stroke="#ffffff"
   stroke-width="1"
   fill="none"
   id="path163"
   style="fill:#000000" />
			<path
   d="M 26 21.0079 C 26 21.0079 28.041 20.6962 27.9994 24 C 27.9577 27.3038 26 26.9921 26 26.9921 "
   stroke="#ffffff"
   stroke-width="1"
   fill="none"
   id="path165"
   style="fill:#000000" />
		</g>
	</g>
	<g
   id="play/pause"
   style="fill:#ffffff">
		<g
   id="play"
   style="fill:#ffffff">
			<path
   id="Polygon"
   d="M 14 8.5 L 3 14 L 3 3 L 14 8.5 Z"
   fill="url(#gradient9)"
   style="fill:#ffffff" />
		</g>
		<g
   id="pause"
   style="fill:#ffffff">
			<rect
   x="3"
   y="18"
   width="3"
   height="12"
   fill="url(#gradient10)"
   id="rect171"
   style="fill:#ffffff" />
			<rect
   x="10"
   y="18"
   width="3"
   height="12"
   fill="url(#gradient11)"
   id="rect173"
   style="fill:#ffffff" />
		</g>
	</g>
	<g
   id="fullscreen"
   style="fill:#000000">
		<g
   id="enter%201"
   style="fill:#000000">
			<path
   d="M 34 2 L 39 2 L 34 7 L 34 2 Z"
   fill="url(#gradient12)"
   id="path177"
   style="fill:#000000" />
			<path
   d="M 34 14 L 39 14 L 34 9 L 34 14 Z"
   fill="url(#gradient13)"
   id="path179"
   style="fill:#000000" />
			<path
   d="M 46 2 L 41 2 L 46 7 L 46 2 Z"
   fill="url(#gradient14)"
   id="path181"
   style="fill:#000000" />
			<path
   d="M 46 14 L 41 14 L 46 9 L 46 14 Z"
   fill="url(#gradient15)"
   id="path183"
   style="fill:#000000" />
		</g>
		<g
   id="exit"
   style="fill:#000000">
			<path
   d="M 42 22 L 46 22 L 42 18 L 42 22 Z"
   fill="url(#gradient16)"
   id="path186"
   style="fill:#000000" />
			<path
   d="M 38 22 L 38 18 L 34 22 L 38 22 Z"
   fill="url(#gradient17)"
   id="path188"
   style="fill:#000000" />
			<path
   d="M 38 26 L 34 26 L 38 30 L 38 26 Z"
   fill="url(#gradient18)"
   id="path190"
   style="fill:#000000" />
			<path
   d="M 42 26 L 42 30 L 46 26 L 42 26 Z"
   fill="url(#gradient19)"
   id="path192"
   style="fill:#000000" />
		</g>
	</g>
	<g
   id="stop"
   style="fill:#000000">
		<rect
   x="115"
   y="3"
   width="10"
   height="10"
   fill="url(#gradient20)"
   id="rect195"
   style="fill:#000000" />
	</g>
	<g
   id="chooser"
   style="fill:#000000">
		<path
   d="M 135.2346 6.1522 C 136.2551 5.7295 137.4251 6.2141 137.8478 7.2346 C 138.2704 8.2551 137.7859 9.425 136.7654 9.8478 C 135.7449 10.2705 134.5749 9.7859 134.1522 8.7654 C 133.7295 7.7449 134.2141 6.5749 135.2346 6.1522 ZM 133.2735 1.4176 L 136 4.0054 L 138.7265 1.4176 L 138.8246 5.1754 L 142.5824 5.2735 L 139.9946 8 L 142.5824 10.7265 L 138.8246 10.8246 L 138.7265 14.5824 L 136 11.9946 L 133.2735 14.5824 L 133.1754 10.8246 L 129.4176 10.7265 L 132.0054 8 L 129.4176 5.2735 L 133.1754 5.1754 L 133.2735 1.4176 Z"
   fill="url(#gradient21)"
   id="path198"
   style="fill:#000000" />
	</g>
</svg>